<?xml version="1.0" encoding="UTF-8"?>
<!DOCTYPE svg PUBLIC "-//W3C//DTD SVG 1.1//EN" "http://www.w3.org/Graphics/SVG/1.1/DTD/svg11.dtd">
<!-- Creator: CorelDRAW 2020 (64 Bit) -->
<svg xmlns="http://www.w3.org/2000/svg" xml:space="preserve" width="149.931mm" height="149.931mm" version="1.1" style="shape-rendering:geometricPrecision; text-rendering:geometricPrecision; image-rendering:optimizeQuality; fill-rule:evenodd; clip-rule:evenodd"
viewBox="0 0 14993.06 14993.06"
 xmlns:xlink="http://www.w3.org/1999/xlink"
 xmlns:xodm="http://www.corel.com/coreldraw/odm/2003">
 <defs>
  <style type="text/css">
   <![CDATA[
    .str0 {stroke:#FEFEFE;stroke-width:141.11;stroke-miterlimit:22.9256}
    .fil2 {fill:none}
    .fil3 {fill:#00A550}
    .fil0 {fill:#9CE1DE}
    .fil1 {fill:#FEFEFE}
    .fil4 {fill:#FEFEFE;fill-rule:nonzero}
    .fil5 {fill:url(#id0)}
    .fil6 {fill:url(#id1)}
    .fil7 {fill:url(#id2)}
   ]]>
  </style>
  <linearGradient id="id0" gradientUnits="userSpaceOnUse" x1="1035.47" y1="3171.48" x2="3702.03" y2="10154.71">
   <stop offset="0" style="stop-opacity:1; stop-color:#c8f4ee"/>
   <stop offset="1" style="stop-opacity:1; stop-color:#FEFEFE"/>
  </linearGradient>
  <linearGradient id="id1" gradientUnits="userSpaceOnUse" xlink:href="#id0" x1="1028.92" y1="3171.48" x2="3587.12" y2="10154.71">
  </linearGradient>
  <linearGradient id="id2" gradientUnits="userSpaceOnUse" xlink:href="#id0" x1="1076.12" y1="3171.48" x2="3700.75" y2="10154.71">
  </linearGradient>
 </defs>
 <g id="Camada_x0020_1">
  <metadata id="CorelCorpID_0Corel-Layer"/>
  <!--<polygon class="fil0" points="-1.47,-5.47 14998.53,-5.47 14998.53,14994.53 -1.47,14994.53 "/> -->
  <path class="fil1" d="M2459.97 3778.83c44.23,227.29 88.46,454.58 67,684.11 -21.44,229.52 -108.59,461.29 -196.48,630.92 -87.9,169.65 -176.57,277.15 -265.23,384.67 110.29,25.07 220.6,50.14 299.52,79.88 78.94,29.74 126.5,64.14 174.06,98.55 117.64,-248.56 235.27,-497.14 277.91,-745.86 42.65,-248.72 10.29,-497.57 -61.67,-686.3 -71.96,-188.74 -183.53,-317.36 -295.11,-445.97z"/>
  <path class="fil1" d="M2207.04 6287.77c-109.69,-33.65 -219.37,-67.29 -295.65,-98.13 -76.26,-30.84 -119.1,-58.87 -161.95,-86.92 -32.83,146.82 -65.65,293.64 -65.87,436.3 -0.2,142.67 32.22,281.19 77.32,405.09 45.09,123.9 102.86,233.17 155.43,312.34 52.59,79.17 99.98,128.22 147.37,177.27 -42.65,-128.03 -85.3,-256.07 -82.93,-411.07 2.38,-155.02 49.77,-337.02 94.98,-464 45.22,-126.97 88.26,-198.92 131.3,-270.88z"/>
  <path class="fil1" d="M3751.94 7333.61c-315.34,124.15 -630.7,248.31 -946.05,372.45 -58.24,-30.79 -116.49,-61.57 -174.74,-92.36 370.45,-146.19 740.89,-292.35 1111.34,-438.54 3.15,52.82 6.3,105.63 9.45,158.45z"/>
  <path class="fil1" d="M2375.14 7476.4c-34.91,-16.29 -69.81,-32.58 -98.6,-50.38 -28.78,-17.78 -51.44,-37.07 -74.1,-56.35 394.47,-159.13 788.95,-318.26 1183.42,-477.38 51.48,33.82 102.96,67.65 154.44,101.47 -168.6,63.55 -337.22,127.1 -531.42,207.55 -194.19,80.43 -413.96,177.76 -633.74,275.09z"/>
  <path class="fil1" d="M3241.57 6689.58c-62.15,-29.4 -124.28,-58.81 -186.42,-88.22 -304.59,118.92 -609.15,237.85 -913.74,356.77 -4.6,54.53 -9.2,109.05 -13.8,163.58 305.74,-118.95 611.47,-237.9 797.13,-309.92 185.66,-72.02 251.25,-97.12 316.83,-122.21z"/>
  <path class="fil1" d="M2750.51 6484.06c-71.9,-25.36 -143.83,-50.72 -215.74,-76.08 -103.04,42.69 -206.07,85.39 -309.11,128.08 -26.75,61.05 -53.48,122.07 -80.23,183.11 201.7,-78.37 403.38,-156.74 605.08,-235.11z"/>
  <path class="fil2 str0" d="M3762.13 5263.2c90.88,68.85 181.74,137.68 291.9,147.33 110.16,9.63 239.57,-39.94 378.64,-100.53 139.08,-60.58 287.78,-132.17 491.55,-161.08 203.8,-28.92 462.65,-15.15 699.47,59.21 236.82,74.35 451.63,209.28 620.99,422.7 169.36,213.42 293.27,505.32 351.1,845.43 57.84,340.08 49.57,728.37 -52.66,1130.1 -102.23,401.7 -298.42,816.84 -616.14,1128.01 -317.72,311.18 -756.94,518.39 -1098.19,601.36 -341.25,82.96 -584.52,41.65 -730.4,4.4 -145.87,-37.26 -194.37,-70.48 -242.85,-103.69 180.9,30.46 361.81,60.92 618.87,27.97 257.05,-32.97 590.26,-129.34 879.41,-293.19 289.15,-163.86 534.25,-395.19 724.26,-685.7 190.02,-290.54 324.94,-640.27 389.65,-972.1 64.73,-331.84 59.22,-645.79 5.51,-915.66 -53.69,-269.87 -155.57,-495.69 -308.42,-670.54 -152.84,-174.87 -356.61,-298.8 -583.81,-364.87 -227.19,-66.1 -477.78,-74.36 -700.85,-38.56 -223.05,35.8 -418.57,115.65 -574.17,151.45 -155.59,35.8 -271.24,27.54 -355.25,-15.14 -83.98,-42.69 -136.29,-119.78 -188.61,-196.9z"/>
  <path class="fil1" d="M3762.13 5263.2c90.88,68.85 181.74,137.68 291.9,147.33 110.16,9.63 239.57,-39.94 378.64,-100.53 139.08,-60.58 287.78,-132.17 491.55,-161.08 203.8,-28.92 462.65,-15.15 699.47,59.21 236.82,74.35 451.63,209.28 620.99,422.7 169.36,213.42 293.27,505.32 351.1,845.43 57.84,340.08 49.57,728.37 -52.66,1130.1 -102.23,401.7 -298.42,816.84 -616.14,1128.01 -317.72,311.18 -756.94,518.39 -1098.19,601.36 -341.25,82.96 -584.52,41.65 -730.4,4.4 -145.87,-37.26 -194.37,-70.48 -242.85,-103.69 180.9,30.46 361.81,60.92 618.87,27.97 257.05,-32.97 590.26,-129.34 879.41,-293.19 289.15,-163.86 534.25,-395.19 724.26,-685.7 190.02,-290.54 324.94,-640.27 389.65,-972.1 64.73,-331.84 59.22,-645.79 5.51,-915.66 -53.69,-269.87 -155.57,-495.69 -308.42,-670.54 -152.84,-174.87 -356.61,-298.8 -583.81,-364.87 -227.19,-66.1 -477.78,-74.36 -700.85,-38.56 -223.05,35.8 -418.57,115.65 -574.17,151.45 -155.59,35.8 -271.24,27.54 -355.25,-15.14 -83.98,-42.69 -136.29,-119.78 -188.61,-196.9z"/>
  <path class="fil3" d="M4111.24 4335.87c71.6,-192.78 143.19,-385.54 279.5,-550.77 136.31,-165.24 337.35,-302.92 551.45,-390.35 214.11,-87.44 441.31,-124.63 597.59,-143.21 156.28,-18.59 241.64,-18.59 283.64,-18.59 42,0 40.61,0 35.8,75.05 -4.82,75.04 -13.08,225.12 -83.31,432.34 -70.22,207.22 -202.39,471.6 -356.61,657.48 -154.22,185.89 -330.46,293.27 -495.7,374.52 -165.22,81.24 -319.44,136.32 -424.76,152.16 -105.33,15.84 -161.79,-7.58 -218.24,-30.98 82.62,-2.76 165.22,-5.51 294.66,-53.69 129.43,-48.21 305.67,-141.82 466.07,-263.67 160.42,-121.87 305,-271.97 405.51,-415.85 100.51,-143.9 156.97,-281.58 196.9,-413.08 39.92,-131.49 63.34,-256.79 75.03,-322.88 11.71,-66.1 11.71,-72.97 -62.65,-70.22 -74.36,2.75 -223.05,15.14 -384.15,53.69 -161.1,38.56 -334.6,103.28 -483.98,190.72 -149.39,87.43 -274.71,197.57 -373.85,335.96 -99.12,138.38 -172.11,304.98 -208.61,415.14 -36.47,110.14 -36.47,163.85 -38.53,243.72 -2.07,79.84 -6.21,185.88 -10.33,291.9 -52.32,-207.92 -104.65,-415.83 -179,-572.12 -74.36,-156.28 -170.73,-260.91 -272.63,-335.94 -101.89,-75.05 -209.28,-120.5 -282.27,-145.29 -72.97,-24.78 -111.53,-28.9 -132.19,-31.66 -20.65,-2.75 -23.4,-4.14 -22.03,56.45 1.38,60.59 6.89,183.13 38.55,313.26 31.68,130.11 89.52,267.79 181.07,382.76 91.58,114.97 216.87,207.24 323.58,274.03 106.71,66.77 194.84,108.08 282.97,149.39 -119.79,-26.18 -239.6,-52.33 -369.03,-127.38 -129.42,-75.05 -268.49,-198.96 -364.87,-323.56 -96.37,-124.62 -150.09,-249.92 -175.56,-391.04 -25.46,-141.15 -22.71,-298.11 -20.65,-377.97 2.06,-79.87 3.45,-82.62 81.93,-70.91 78.47,11.69 234.06,37.86 368.31,100.51 134.26,62.65 247.15,161.79 319.44,245.1 72.3,83.29 103.96,150.76 126.69,198.96 22.72,48.19 36.49,77.09 50.26,106.02z"/>
  <path class="fil4" d="M10185.65 11261.59c-33.53,16.77 -72.65,25.15 -117.36,25.15 -100.59,0 -181.63,-50.3 -243.1,-150.89l-1433.49 -2934.04 -720.94 913.74 0 1902.93c0,78.25 -26.54,142.52 -79.64,192.81 -53.09,50.3 -115.96,75.45 -188.61,75.45 -78.24,0 -142.51,-25.15 -192.81,-75.45 -50.3,-50.29 -75.45,-114.56 -75.45,-192.81l0 -5331.56c0,-78.25 25.15,-142.51 75.45,-192.81 50.3,-50.3 114.57,-75.45 192.81,-75.45 72.65,0 135.52,25.15 188.61,75.45 53.1,50.3 79.64,114.56 79.64,192.81l0 2573.57 2187.96 -2741.23c50.3,-67.07 120.15,-100.6 209.57,-100.6 72.65,0 128.54,19.56 167.66,58.68 61.48,44.71 95.01,103.39 100.6,176.04 5.59,72.66 -13.97,139.72 -58.68,201.2l-1517.32 1894.55 1550.85 3151.99c27.94,67.07 30.74,135.53 8.38,205.39 -22.35,69.85 -67.06,121.55 -134.13,155.08zm3847.79 -5574.67l0 3998.67c0,229.14 -39.12,441.51 -117.36,637.11 -78.24,195.6 -188.62,364.66 -331.13,507.17 -142.51,142.51 -311.57,254.28 -507.17,335.32 -195.6,81.03 -410.76,121.55 -645.49,121.55 -234.72,0 -449.88,-39.12 -645.49,-117.36 -195.6,-78.24 -364.66,-188.62 -507.17,-331.13 -142.51,-142.51 -252.88,-311.57 -331.12,-507.17 -78.24,-195.6 -117.37,-410.76 -117.37,-645.49l0 -3998.67c0,-78.25 25.15,-142.51 75.45,-192.81 50.3,-50.3 114.57,-75.45 192.81,-75.45 72.65,0 135.52,25.15 188.62,75.45 53.09,50.3 79.64,114.56 79.64,192.81l0 3998.67c0,318.56 96.4,575.63 289.21,771.24 192.81,195.6 451.28,293.4 775.42,293.4 312.97,0 550.48,-76.84 712.55,-230.53 162.08,-153.69 273.85,-373.04 335.32,-658.06 5.59,-27.95 9.78,-57.29 12.58,-88.03 2.79,-30.73 4.19,-60.07 4.19,-88.02l0 -3998.67c0,-78.25 25.15,-142.51 75.45,-192.81 50.29,-50.3 114.56,-75.45 192.8,-75.45 78.25,0 142.52,25.15 192.81,75.45 50.3,50.3 75.45,114.56 75.45,192.81z"/>
  <path class="fil5" d="M4118.17 7570.14c-26.14,-115.11 -52.28,-230.24 -109.74,-359.72 -57.46,-129.46 -146.22,-273.3 -355.89,-428.05 -209.65,-154.74 -540.19,-320.41 -875.36,-438.99 -335.15,-118.59 -674.93,-190.12 -949.81,-283.33 -274.86,-93.2 -484.84,-208.09 -665.17,-351.92 -180.32,-143.84 -331,-316.61 -412.22,-502.56 -81.21,-185.94 -92.96,-385.07 -90.86,-518.11 2.12,-133.06 18.08,-200.03 34.04,-267.01 35.06,149.91 70.12,299.83 167.74,455.04 97.62,155.2 257.79,315.72 515.72,453.41 257.93,137.7 613.59,252.59 927.43,349.43 313.85,96.83 585.87,175.62 825.23,271.04 239.37,95.44 446.1,207.51 599.01,330.43 152.94,122.93 252.08,256.7 317.59,414.81 65.51,158.1 97.41,340.54 103.85,490.52 6.45,149.98 -12.55,267.49 -31.56,385.01l0 0z"/>
  <path class="fil6" d="M942.78 4766.65c-60.64,-81.04 -121.28,-162.06 -170.63,-268.59 -49.34,-106.52 -87.39,-238.54 -75.84,-401.52 11.57,-162.98 72.75,-356.94 159.96,-553.35 87.21,-196.41 200.46,-395.3 257.15,-562.41 56.68,-167.11 56.79,-302.45 44.94,-408.9 -11.85,-106.47 -35.66,-184.01 -59.47,-261.57 80.62,79 161.21,157.99 213.06,271.81 51.86,113.81 74.94,262.42 32.23,433.11 -42.71,170.69 -151.21,363.46 -239.42,573.82 -88.2,210.35 -156.11,438.31 -188.38,601.56 -32.26,163.24 -28.91,261.75 -18.57,346.98 10.33,85.22 27.65,157.13 44.97,229.06z"/>
  <path class="fil7" d="M4032.45 11483.57c-71.67,-76.16 -143.34,-152.34 -207.75,-273.52 -64.4,-121.18 -121.55,-287.39 -134.29,-555.89 -12.74,-268.51 18.92,-639.31 82.85,-994.83 63.92,-355.51 160.11,-695.72 212.45,-989.91 52.34,-294.16 60.83,-542.3 35.58,-779.61 -25.26,-237.3 -84.26,-463.78 -182.96,-635.61 -98.7,-171.81 -237.1,-288.99 -333.91,-358.43 -96.81,-69.44 -152.02,-91.15 -207.23,-112.87 92.79,111.49 185.6,223 255.01,392.92 69.42,169.93 115.46,398.27 102.54,701.23 -12.9,302.97 -84.74,680.54 -151.41,1011.27 -66.67,330.75 -128.17,614.66 -163.47,878.47 -35.3,263.82 -44.41,507.56 -22.31,709.31 22.1,201.77 75.41,361.55 160.87,504.5 85.46,142.95 203.08,269.08 300.79,350.1 97.69,81.02 175.46,116.95 253.24,152.87z"/>
 </g>
</svg>
